<?xml version="1.0" encoding="UTF-8"?>
<svg width="240px" height="289px" viewBox="0 0 240 289" version="1.1" xmlns="http://www.w3.org/2000/svg" xmlns:xlink="http://www.w3.org/1999/xlink" xmlns:sketch="http://www.bohemiancoding.com/sketch/ns">
    <!-- Generator: Sketch 3.3.3 (12081) - http://www.bohemiancoding.com/sketch -->
    <title>php</title>
    <desc>Created with Sketch.</desc>
    <defs></defs>
    <g id="Page-1" stroke="none" stroke-width="1" fill="none" fill-rule="evenodd" sketch:type="MSPage">
        <g id="php" sketch:type="MSLayerGroup">
            <g id="Page-1" sketch:type="MSShapeGroup">
                <g id="php">
                    <g id="Page-1">
                        <g id="php">
                            <g id="Page-1">
                                <g id="Imported-Layers">
                                    <path d="M0.085238141,0.203988708 L239.95454,0.203988708 L239.95454,288.564466 L0.085238141,288.564466 L0.085238141,0.203988708 L0.085238141,0.203988708 Z" id="Fill-1" fill="#C1C4EB"></path>
                                    <path d="M179.2424,152.705946 C179.2424,184.498607 153.469447,210.27054 121.677807,210.27054 C89.8851471,210.27054 64.1121938,184.498607 64.1121938,152.705946 C64.1121938,120.914307 89.8851471,95.1413534 121.677807,95.1413534 C153.469447,95.1413534 179.2424,120.914307 179.2424,152.705946" id="Fill-2" fill="#A5A0DA"></path>
                                    <path d="M154.562826,90.5250889 C154.562826,91.2288501 153.992678,91.7989986 153.288917,91.7989986 C152.586176,91.7989986 152.015008,91.2288501 152.015008,90.5250889 C152.015008,89.8223473 152.586176,89.2521988 153.288917,89.2521988 C153.992678,89.2521988 154.562826,89.8223473 154.562826,90.5250889" id="Fill-3" fill="#857BBF"></path>
                                    <path d="M63.2676805,112.388599 C63.2676805,113.09236 62.6975321,113.662508 61.9937711,113.662508 C61.29001,113.662508 60.7208815,113.09236 60.7208815,112.388599 C60.7208815,111.685857 61.29001,111.115709 61.9937711,111.115709 C62.6975321,111.115709 63.2676805,111.685857 63.2676805,112.388599" id="Fill-4" fill="#857BBF"></path>
                                    <path d="M124.178709,95.1413534 C124.178709,96.2836906 123.2526,97.2097987 122.110263,97.2097987 C120.967926,97.2097987 120.041818,96.2836906 120.041818,95.1413534 C120.041818,93.9990164 120.967926,93.0729073 122.110263,93.0729073 C123.2526,93.0729073 124.178709,93.9990164 124.178709,95.1413534" id="Fill-5" fill="#857BBF"></path>
                                    <path d="M66.131682,152.705946 C66.131682,153.848283 65.2055732,154.774393 64.0622165,154.774393 C62.9198798,154.774393 61.9937711,153.848283 61.9937711,152.705946 C61.9937711,151.563609 62.9198798,150.637501 64.0622165,150.637501 C65.2055732,150.637501 66.131682,151.563609 66.131682,152.705946" id="Fill-6" fill="#857BBF"></path>
                                    <path d="M181.260868,152.705946 C181.260868,153.848283 180.33476,154.774393 179.192423,154.774393 C178.049067,154.774393 177.122958,153.848283 177.122958,152.705946 C177.122958,151.563609 178.049067,150.637501 179.192423,150.637501 C180.33476,150.637501 181.260868,151.563609 181.260868,152.705946" id="Fill-7" fill="#857BBF"></path>
                                    <path d="M55.8659503,126.170075 L49.1537018,126.170075 C48.8721975,126.170075 48.6437301,125.941608 48.6437301,125.660104 C48.6437301,125.37758 48.8721975,125.150132 49.1537018,125.150132 L55.8659503,125.150132 C56.1484746,125.150132 56.375922,125.37758 56.375922,125.660104 C56.375922,125.941608 56.1484746,126.170075 55.8659503,126.170075" id="Fill-8" fill="#857BBF"></path>
                                    <path d="M52.5093161,129.52569 C52.2278117,129.52569 51.9993443,129.298242 51.9993443,129.015718 L51.9993443,122.30347 C51.9993443,122.021965 52.2278117,121.793498 52.5093161,121.793498 C52.7908205,121.793498 53.0192878,122.021965 53.0192878,122.30347 L53.0192878,129.015718 C53.0192878,129.298242 52.7908205,129.52569 52.5093161,129.52569" id="Fill-9" fill="#857BBF"></path>
                                    <path d="M194.681286,174.563337 L187.968017,174.563337 C187.685493,174.563337 187.458046,174.335889 187.458046,174.053365 C187.458046,173.77186 187.685493,173.543393 187.968017,173.543393 L194.681286,173.543393 C194.962791,173.543393 195.191258,173.77186 195.191258,174.053365 C195.191258,174.335889 194.962791,174.563337 194.681286,174.563337" id="Fill-10" fill="#857BBF"></path>
                                    <path d="M191.324652,177.919971 C191.042127,177.919971 190.81468,177.692523 190.81468,177.409999 L190.81468,170.697751 C190.81468,170.416247 191.042127,170.187779 191.324652,170.187779 C191.606156,170.187779 191.834624,170.416247 191.834624,170.697751 L191.834624,177.409999 C191.834624,177.692523 191.606156,177.919971 191.324652,177.919971" id="Fill-11" fill="#857BBF"></path>
                                    <path d="M98.8881888,82.319643 C98.6627808,82.319643 98.4802109,82.1370731 98.4802109,81.9116656 L98.4802109,80.1849012 C98.4802109,79.9594936 98.6627808,79.7769237 98.8881888,79.7769237 C99.1135958,79.7769237 99.2961658,79.9594936 99.2961658,80.1849012 L99.2961658,81.9116656 C99.2961658,82.1370731 99.1135958,82.319643 98.8881888,82.319643" id="Fill-12" fill="#857BBF"></path>
                                    <path d="M98.8881888,88.4423637 C98.6627808,88.4423637 98.4802109,88.2597945 98.4802109,88.0354066 L98.4802109,86.3076223 C98.4802109,86.0822147 98.6627808,85.8996448 98.8881888,85.8996448 C99.1135958,85.8996448 99.2961658,86.0822147 99.2961658,86.3076223 L99.2961658,88.0354066 C99.2961658,88.2597945 99.1135958,88.4423637 98.8881888,88.4423637" id="Fill-13" fill="#857BBF"></path>
                                    <path d="M102.891467,84.596157 L101.163683,84.596157 C100.939295,84.596157 100.755705,84.4135871 100.755705,84.1881796 C100.755705,83.962772 100.939295,83.7802021 101.163683,83.7802021 L102.891467,83.7802021 C103.116875,83.7802021 103.299445,83.962772 103.299445,84.1881796 C103.299445,84.4135871 103.116875,84.596157 102.891467,84.596157" id="Fill-14" fill="#857BBF"></path>
                                    <path d="M96.7289683,84.596157 L95.0022035,84.596157 C94.7778164,84.596157 94.5942268,84.4135871 94.5942268,84.1881796 C94.5942268,83.962772 94.7778164,83.7802021 95.0022035,83.7802021 L96.7289683,83.7802021 C96.9533558,83.7802021 97.1369453,83.962772 97.1369453,84.1881796 C97.1369453,84.4135871 96.9533558,84.596157 96.7289683,84.596157" id="Fill-15" fill="#857BBF"></path>
                                    <path d="M100.553757,82.9305892 C100.448702,82.9305892 100.344668,82.8908114 100.264093,82.8102358 C100.104982,82.6511246 100.104982,82.393079 100.264093,82.2339678 L101.485985,81.0130954 C101.645096,80.8539842 101.904161,80.8539842 102.063273,81.0130954 C102.222384,81.1722066 102.222384,81.4302522 102.063273,81.5893634 L100.842401,82.8102358 C100.762845,82.8908114 100.657791,82.9305892 100.553757,82.9305892" id="Fill-16" fill="#857BBF"></path>
                                    <path d="M101.774629,87.3265459 C101.670595,87.3265459 101.56554,87.2867681 101.485985,87.2061928 L100.264093,85.9853201 C100.104982,85.8262089 100.104982,85.5681632 100.264093,85.409052 C100.424224,85.2499408 100.683289,85.2499408 100.842401,85.409052 L102.063273,86.6299243 C102.222384,86.7890357 102.222384,87.0470814 102.063273,87.2061928 C101.983717,87.2867681 101.878663,87.3265459 101.774629,87.3265459" id="Fill-17" fill="#857BBF"></path>
                                    <path d="M97.2103814,82.9305892 C97.1053277,82.9305892 97.000273,82.8908114 96.9207178,82.8102358 L95.6998455,81.5893634 C95.5407341,81.4302522 95.5407341,81.1722066 95.6998455,81.0130954 C95.858956,80.8539842 96.1180224,80.8539842 96.2781533,81.0130954 L97.4990256,82.2339678 C97.658137,82.393079 97.658137,82.6511246 97.4990256,82.8102358 C97.4184499,82.8908114 97.3144157,82.9305892 97.2103814,82.9305892" id="Fill-18" fill="#857BBF"></path>
                                    <path d="M95.9884895,87.3265459 C95.8844547,87.3265459 95.7794012,87.2867681 95.6998455,87.2061928 C95.5407341,87.0470814 95.5407341,86.7890357 95.6998455,86.6299243 L96.9207178,85.409052 C97.0808486,85.2499408 97.3388947,85.2499408 97.4990256,85.409052 C97.658137,85.5681632 97.658137,85.8262089 97.4990256,85.9853201 L96.2781533,87.2061928 C96.1975776,87.2867681 96.0935434,87.3265459 95.9884895,87.3265459" id="Fill-19" fill="#857BBF"></path>
                                    <path d="M164.579692,92.5588558 C162.873326,92.5588558 161.486203,91.1717327 161.486203,89.4653672 C161.486203,87.7600222 162.873326,86.3718786 164.579692,86.3718786 C166.286058,86.3718786 167.674201,87.7600222 167.674201,89.4653672 C167.674201,91.1717327 166.286058,92.5588558 164.579692,92.5588558 L164.579692,92.5588558 L164.579692,92.5588558 Z M164.579692,87.3918224 C163.436335,87.3918224 162.506147,88.3220106 162.506147,89.4653672 C162.506147,90.6087237 163.436335,91.5389128 164.579692,91.5389128 C165.724069,91.5389128 166.655277,90.6087237 166.655277,89.4653672 C166.655277,88.3220106 165.724069,87.3918224 164.579692,87.3918224 L164.579692,87.3918224 L164.579692,87.3918224 Z" id="Fill-20" fill="#857BBF"></path>
                                    <path d="M170.483125,100.699026 L163.770877,100.699026 C163.489373,100.699026 163.260906,100.471578 163.260906,100.189054 C163.260906,99.9075494 163.489373,99.6790819 163.770877,99.6790819 L170.483125,99.6790819 C170.765649,99.6790819 170.993097,99.9075494 170.993097,100.189054 C170.993097,100.471578 170.765649,100.699026 170.483125,100.699026" id="Fill-21" fill="#F1EEF9"></path>
                                    <path d="M167.127511,104.05566 C166.846007,104.05566 166.61754,103.827193 166.61754,103.545688 L166.61754,96.8324189 C166.61754,96.5509152 166.846007,96.3224477 167.127511,96.3224477 C167.410035,96.3224477 167.637483,96.5509152 167.637483,96.8324189 L167.637483,103.545688 C167.637483,103.827193 167.410035,104.05566 167.127511,104.05566" id="Fill-22" fill="#F1EEF9"></path>
                                    <path d="M193.140151,159.15607 C192.915763,159.15607 192.732174,158.972479 192.732174,158.748092 L192.732174,157.35383 C192.732174,157.128422 192.915763,156.945852 193.140151,156.945852 C193.365559,156.945852 193.549148,157.128422 193.549148,157.35383 L193.549148,158.748092 C193.549148,158.972479 193.365559,159.15607 193.140151,159.15607" id="Fill-23" fill="#F1EEF9"></path>
                                    <path d="M193.140151,164.097696 C192.915763,164.097696 192.732174,163.915126 192.732174,163.689718 L192.732174,162.295456 C192.732174,162.070048 192.915763,161.887478 193.140151,161.887478 C193.365559,161.887478 193.549148,162.070048 193.549148,162.295456 L193.549148,163.689718 C193.549148,163.915126 193.365559,164.097696 193.140151,164.097696" id="Fill-24" fill="#F1EEF9"></path>
                                    <path d="M196.371332,160.992988 L194.978089,160.992988 C194.752682,160.992988 194.569092,160.809398 194.569092,160.58501 C194.569092,160.359603 194.752682,160.177033 194.978089,160.177033 L196.371332,160.177033 C196.59674,160.177033 196.77931,160.359603 196.77931,160.58501 C196.77931,160.809398 196.59674,160.992988 196.371332,160.992988" id="Fill-25" fill="#F1EEF9"></path>
                                    <path d="M191.398088,160.992988 L190.003825,160.992988 C189.778418,160.992988 189.595847,160.809398 189.595847,160.58501 C189.595847,160.359603 189.778418,160.177033 190.003825,160.177033 L191.398088,160.177033 C191.623495,160.177033 191.807085,160.359603 191.807085,160.58501 C191.807085,160.809398 191.623495,160.992988 191.398088,160.992988" id="Fill-26" fill="#F1EEF9"></path>
                                    <path d="M194.484437,159.647682 C194.380403,159.647682 194.276368,159.607904 194.195793,159.528349 C194.036681,159.369237 194.036681,159.111192 194.195793,158.952081 L195.181058,157.965795 C195.341189,157.806685 195.599235,157.806685 195.759366,157.965795 C195.918477,158.124906 195.918477,158.383973 195.759366,158.543083 L194.7741,159.528349 C194.694545,159.607904 194.589491,159.647682 194.484437,159.647682" id="Fill-27" fill="#F1EEF9"></path>
                                    <path d="M195.469702,163.196066 C195.365668,163.196066 195.260614,163.156288 195.181058,163.076732 L194.195793,162.091467 C194.036681,161.932356 194.036681,161.67329 194.195793,161.514179 C194.354904,161.355068 194.613969,161.355068 194.7741,161.514179 L195.759366,162.500465 C195.918477,162.659575 195.918477,162.917621 195.759366,163.076732 C195.678791,163.156288 195.574756,163.196066 195.469702,163.196066" id="Fill-28" fill="#F1EEF9"></path>
                                    <path d="M191.785666,159.647682 C191.680612,159.647682 191.576578,159.607904 191.497022,159.528349 L190.511757,158.543083 C190.352645,158.383973 190.352645,158.124906 190.511757,157.965795 C190.670868,157.806685 190.929933,157.806685 191.089045,157.965795 L192.07431,158.952081 C192.234441,159.111192 192.234441,159.369237 192.07431,159.528349 C191.994755,159.607904 191.890721,159.647682 191.785666,159.647682" id="Fill-29" fill="#F1EEF9"></path>
                                    <path d="M190.800401,163.196066 C190.696367,163.196066 190.591312,163.156288 190.511757,163.076732 C190.352645,162.917621 190.352645,162.659575 190.511757,162.500465 L191.497022,161.514179 C191.656134,161.355068 191.915199,161.355068 192.07431,161.514179 C192.234441,161.67329 192.234441,161.932356 192.07431,162.091467 L191.089045,163.076732 C191.009489,163.156288 190.905455,163.196066 190.800401,163.196066" id="Fill-30" fill="#F1EEF9"></path>
                                    <path d="M46.5701849,118.066624 C44.8638193,118.066624 43.4756762,116.679501 43.4756762,114.973135 C43.4756762,113.26677 44.8638193,111.878627 46.5701849,111.878627 C48.2765504,111.878627 49.6636736,113.26677 49.6636736,114.973135 C49.6636736,116.679501 48.2765504,118.066624 46.5701849,118.066624 L46.5701849,118.066624 L46.5701849,118.066624 Z M46.5701849,112.89857 C45.4258082,112.89857 44.4956197,113.829779 44.4956197,114.973135 C44.4956197,116.116492 45.4258082,117.046681 46.5701849,117.046681 C47.7135416,117.046681 48.6437301,116.116492 48.6437301,114.973135 C48.6437301,113.829779 47.7135416,112.89857 46.5701849,112.89857 L46.5701849,112.89857 L46.5701849,112.89857 Z" id="Fill-31" fill="#F1EEF9"></path>
                                    <path d="M158.173427,129.989764 L85.7502958,129.989764 C84.6324378,129.989764 83.7236681,130.898534 83.7236681,132.017412 L83.7236681,195.985211 C93.7242147,204.373227 108.45016,210.2634 122.52538,210.2634 C137.829633,210.2634 149.890465,204.643512 160.201075,194.90305 L160.201075,132.017412 C160.201075,130.898534 159.292304,129.989764 158.173427,129.989764" id="Fill-32" fill="#FFFFFF"></path>
                                    <path d="M83.7236681,130.375303 L160.201075,130.375303 L160.201075,144.633093 L83.7236681,144.633093 L83.7236681,130.375303 L83.7236681,130.375303 Z" id="Fill-33" fill="#B4B8E7"></path>
                                    <path d="M121.677807,210.780512 C108.240051,210.780512 95.3632636,205.9368 83.4044258,196.382989 L83.2136964,196.229997 L83.2136964,132.017412 C83.2136964,130.61805 84.3519534,129.479792 85.7502958,129.479792 L158.173427,129.479792 C159.572789,129.479792 160.711046,130.61805 160.711046,132.017412 L160.711046,195.708806 L160.536636,195.861798 C149.045953,205.900082 136.334396,210.780512 121.677807,210.780512 L121.677807,210.780512 L121.677807,210.780512 Z M84.2336399,195.738384 C95.9517712,205.043329 108.549094,209.760568 121.677807,209.760568 C136.002914,209.760568 148.440105,205.012731 159.691102,195.245751 L159.691102,132.017412 C159.691102,131.180038 159.00978,130.499736 158.173427,130.499736 L85.7502958,130.499736 C84.9139423,130.499736 84.2336399,131.180038 84.2336399,132.017412 L84.2336399,195.738384 L84.2336399,195.738384 Z" id="Fill-34" fill="#857BBF"></path>
                                    <path d="M157.284036,144.581076 L84.5365632,144.581076 C84.2550587,144.581076 84.0276113,144.353629 84.0276113,144.071105 C84.0276113,143.7896 84.2550587,143.561133 84.5365632,143.561133 L157.284036,143.561133 C157.565541,143.561133 157.794008,143.7896 157.794008,144.071105 C157.794008,144.353629 157.565541,144.581076 157.284036,144.581076" id="Fill-35" fill="#857BBF"></path>
                                    <path d="M92.3177128,137.550605 C92.3177128,138.253347 91.7475643,138.823495 91.0448227,138.823495 C90.3410616,138.823495 89.7709131,138.253347 89.7709131,137.550605 C89.7709131,136.846845 90.3410616,136.276696 91.0448227,136.276696 C91.7475643,136.276696 92.3177128,136.846845 92.3177128,137.550605" id="Fill-36" fill="#C9DCF3"></path>
                                    <path d="M91.0448227,139.333467 C90.0595571,139.333467 89.259922,138.533831 89.259922,137.550605 C89.259922,136.56636 90.0595571,135.766724 91.0448227,135.766724 C92.0270288,135.766724 92.8276843,136.56636 92.8276843,137.550605 C92.8276843,138.533831 92.0270288,139.333467 91.0448227,139.333467 L91.0448227,139.333467 L91.0448227,139.333467 Z M91.0448227,136.786668 C90.622566,136.786668 90.2808855,137.129369 90.2808855,137.550605 C90.2808855,137.970823 90.622566,138.313524 91.0448227,138.313524 C91.4650394,138.313524 91.8077404,137.970823 91.8077404,137.550605 C91.8077404,137.129369 91.4650394,136.786668 91.0448227,136.786668 L91.0448227,136.786668 L91.0448227,136.786668 Z" id="Fill-37" fill="#857BBF"></path>
                                    <path d="M97.252199,137.550605 C97.252199,138.253347 96.6820502,138.823495 95.9793099,138.823495 C95.2765683,138.823495 94.7054003,138.253347 94.7054003,137.550605 C94.7054003,136.846845 95.2765683,136.276696 95.9793099,136.276696 C96.6820502,136.276696 97.252199,136.846845 97.252199,137.550605" id="Fill-38" fill="#C9DCF3"></path>
                                    <path d="M95.9793099,139.333467 C94.9950639,139.333467 94.1954288,138.533831 94.1954288,137.550605 C94.1954288,136.56636 94.9950639,135.766724 95.9793099,135.766724 C96.9625354,135.766724 97.7631907,136.56636 97.7631907,137.550605 C97.7631907,138.533831 96.9625354,139.333467 95.9793099,139.333467 L95.9793099,139.333467 L95.9793099,139.333467 Z M95.9793099,136.786668 C95.5580728,136.786668 95.2153718,137.129369 95.2153718,137.550605 C95.2153718,137.970823 95.5580728,138.313524 95.9793099,138.313524 C96.4005466,138.313524 96.7422278,137.970823 96.7422278,137.550605 C96.7422278,137.129369 96.4005466,136.786668 95.9793099,136.786668 L95.9793099,136.786668 L95.9793099,136.786668 Z" id="Fill-39" fill="#857BBF"></path>
                                    <path d="M102.187706,137.550605 C102.187706,138.253347 101.617557,138.823495 100.913796,138.823495 C100.211056,138.823495 99.6409075,138.253347 99.6409075,137.550605 C99.6409075,136.846845 100.211056,136.276696 100.913796,136.276696 C101.617557,136.276696 102.187706,136.846845 102.187706,137.550605" id="Fill-40" fill="#C9DCF3"></path>
                                    <path d="M100.913796,139.333467 C99.9295507,139.333467 99.1299149,138.533831 99.1299149,137.550605 C99.1299149,136.56636 99.9295507,135.766724 100.913796,135.766724 C101.898042,135.766724 102.697677,136.56636 102.697677,137.550605 C102.697677,138.533831 101.898042,139.333467 100.913796,139.333467 L100.913796,139.333467 L100.913796,139.333467 Z M100.913796,136.786668 C100.49256,136.786668 100.149859,137.129369 100.149859,137.550605 C100.149859,137.970823 100.49256,138.313524 100.913796,138.313524 C101.335033,138.313524 101.677734,137.970823 101.677734,137.550605 C101.677734,137.129369 101.335033,136.786668 100.913796,136.786668 L100.913796,136.786668 L100.913796,136.786668 Z" id="Fill-41" fill="#857BBF"></path>
                                    <path d="M64.8373736,144.222056 C64.8108551,144.222056 64.7853565,144.220016 64.757818,144.215937 C64.4793735,144.173099 64.288644,143.911993 64.3325016,143.633548 C68.2184864,118.86626 87.4485022,99.4852925 112.185193,95.4075583 C112.453437,95.3575813 112.725762,95.5493309 112.770641,95.827775 C112.816538,96.1052006 112.628868,96.3673248 112.350424,96.4132234 C88.0492489,100.420581 69.1578545,119.459867 65.3402058,143.79164 C65.300428,144.043566 65.0842,144.222056 64.8373736,144.222056" id="Fill-42" fill="#857BBF"></path>
                                    <path d="M121.702285,210.780512 C92.9133591,210.780512 68.1899281,189.31478 64.1948092,160.850195 C64.1560513,160.570731 64.3498406,160.313706 64.6293052,160.273928 C64.8975503,160.23415 65.1657955,160.428959 65.2055732,160.708424 C69.129296,188.672215 93.4182311,209.760568 121.702285,209.760568 C149.79663,209.760568 173.47564,189.67074 178.006229,161.992532 C178.051107,161.714088 178.322411,161.528458 178.591677,161.571296 C178.870121,161.616174 179.057791,161.878299 179.012913,162.156743 C174.401749,190.331664 150.298443,210.780512 121.702285,210.780512" id="Fill-43" fill="#857BBF"></path>
                                    <path d="M178.653893,144.787105 C178.405026,144.787105 178.187779,144.604535 178.150041,144.350569 C174.525161,119.645497 155.527693,100.369584 130.877698,96.3856838 C130.600273,96.3397862 130.410564,96.0786816 130.456462,95.8002371 C130.501339,95.5217922 130.767544,95.3320826 131.040889,95.3779804 C156.13252,99.4342954 175.46963,119.054949 179.159785,144.202677 C179.200582,144.481122 179.007813,144.740188 178.728349,144.780985 C178.703871,144.785065 178.679391,144.787105 178.653893,144.787105" id="Fill-44" fill="#857BBF"></path>
                                    <path d="M142.803898,171.365814 C138.365103,165.063583 132.27502,162.40255 126.730607,162.40255 C123.820708,162.40255 119.980621,162.598379 116.988107,165.088061 C114.9472,167.520627 113.538658,171.439249 113.538658,177.763919 C113.538658,180.780913 112.558492,182.590292 111.186668,183.462344 C107.7056,185.182989 102.571205,183.733649 102.571205,177.904671 L99.5735904,177.995447 C99.8918131,180.550405 101.297296,186.855696 107.54037,187.602295 C112.920572,188.245879 116.091577,187.200437 117.965213,185.743958 C119.385994,183.904999 119.392114,184.263 119.392114,184.263 C120.654804,182.491358 120.661943,180.717676 120.661943,180.717676 L120.661943,190.779419 L126.454203,190.779419 C126.785684,189.658501 127.035571,188.463127 128.109571,187.727748 C128.893908,186.622129 130.084182,185.749058 131.616137,185.749058 C134.508697,185.749058 137.16055,189.333139 137.16055,190.779419 L143.498479,190.779419 C145.190566,187.745087 147.243712,177.668045 142.803898,171.365814" id="Fill-45" fill="#CDC1E9"></path>
                                    <path d="M143.66779,191.289391 L137.15953,191.289391 C136.878026,191.289391 136.649558,191.061944 136.649558,190.779419 C136.649558,189.548347 134.202714,186.258009 131.617157,186.258009 C128.944904,186.258009 127.547582,189.201566 127.547582,190.779419 C127.547582,191.061944 127.319115,191.289391 127.037611,191.289391 L120.661943,191.289391 C120.379419,191.289391 120.151972,191.061944 120.151972,190.779419 L120.151972,184.038612 C119.796011,184.636299 119.316638,185.251325 118.669993,185.823514 C116.280266,187.941936 112.513614,188.710974 107.479173,188.109207 C99.0636192,187.102523 98.965704,177.436518 98.965704,177.338603 C98.965704,177.062198 99.1860125,176.835771 99.4624166,176.828631 L102.527347,176.751116 C102.66198,176.754175 102.798652,176.800073 102.895547,176.895948 C102.995501,176.991822 103.050578,177.123395 103.050578,177.261087 C103.050578,180.99102 106.152226,183.590857 108.935652,183.590857 C110.074929,183.590857 111.049995,183.143101 111.752737,182.297568 C112.588071,181.292924 113.028686,179.725271 113.028686,177.763919 C113.028686,160.621728 123.520845,160.621728 128.001457,160.621728 C134.636189,160.621728 140.94454,164.7525 145.309899,171.955341 C149.062271,178.148438 147.228413,186.196813 145.190566,189.815573 C144.446006,191.136399 143.964593,191.289391 143.66779,191.289391 L143.66779,191.289391 L143.66779,191.289391 Z M137.601166,190.269447 L143.66779,190.269447 C143.85954,190.143995 144.852964,188.702814 145.638321,185.972425 C146.313523,183.627575 147.547655,177.617048 144.436828,172.483671 C140.260159,165.593953 134.27003,161.641672 128.001457,161.641672 C123.472908,161.641672 114.048629,161.641672 114.048629,177.763919 C114.048629,179.997596 113.539677,181.742719 112.537073,182.949313 C111.646663,184.020253 110.367654,184.610801 108.935652,184.610801 C105.802386,184.610801 102.326418,181.833494 102.047974,177.783299 L100.005027,177.835316 C100.1315,179.731391 101.03925,186.312066 107.600547,187.096403 C112.335124,187.662471 115.830471,186.977069 117.993771,185.060596 C120.122393,183.17472 120.151972,180.740115 120.151972,180.716656 C120.151972,180.435152 120.380439,180.207704 120.661943,180.207704 C120.943448,180.207704 121.170895,180.436172 121.170895,180.717676 L121.170895,190.269447 L126.557217,190.269447 C126.811183,188.019452 128.689919,185.238066 131.617157,185.238066 C134.463819,185.238066 137.145251,188.397851 137.601166,190.269447 L137.601166,190.269447 L137.601166,190.269447 Z" id="Fill-46" fill="#A48FD7"></path>
                                    <path d="M128.889828,182.189454 C126.69695,182.189454 124.603005,181.249066 123.143466,179.610017 C122.957836,179.398889 122.975176,179.076587 123.186304,178.889937 C123.394372,178.701248 123.717694,178.720626 123.906384,178.931755 C125.171113,180.353556 126.987633,181.169511 128.889828,181.169511 C132.567744,181.169511 135.558218,178.176996 135.558218,174.49908 C135.558218,170.822184 132.567744,167.830689 128.889828,167.830689 C126.891759,167.830689 125.015062,168.716 123.742173,170.259175 C123.562663,170.476423 123.24138,170.506001 123.024133,170.327511 C122.806885,170.148001 122.776286,169.826719 122.955796,169.609471 C124.422475,167.830689 126.585775,166.810746 128.889828,166.810746 C133.128713,166.810746 136.578162,170.260195 136.578162,174.49908 C136.578162,178.740005 133.128713,182.189454 128.889828,182.189454" id="Fill-47" fill="#A48FD7"></path>
                                    <path d="M117.495019,175.343593 C117.495019,175.808687 117.11764,176.187087 116.651525,176.187087 C116.186431,176.187087 115.808032,175.808687 115.808032,175.343593 C115.808032,174.87748 116.186431,174.5001 116.651525,174.5001 C117.11764,174.5001 117.495019,174.87748 117.495019,175.343593" id="Fill-48" fill="#A48FD7"></path>
                                    <path d="M104.406083,171.127146 C104.587633,170.906839 104.710026,170.681432 104.794682,170.458064 C104.367325,169.364684 102.870048,168.768017 101.543101,169.964411 C100.574156,170.838502 100.48746,172.182788 100.107022,173.4261 C101.171842,173.172134 103.254567,172.523449 104.406083,171.127146" id="Fill-49" fill="#A5ECFB"></path>
                                    <path d="M97.1298058,175.2212 C97.1298058,175.2212 97.2940166,174.604134 97.3715328,173.842236 C97.3327747,173.513814 97.2634186,173.199673 97.1267462,172.941627 C96.6738912,172.088953 95.3153266,172.3215 94.8114742,173.073199 C95.526455,174.470522 96.6259536,174.363427 97.1298058,175.2212" id="Fill-50" fill="#A5ECFB"></path>
                                    <path d="M99.4389581,174.073764 C99.2604682,174.073764 99.0931978,173.980948 99.0003821,173.824898 C98.8953283,173.647427 98.9075674,173.42202 99.0320016,173.256789 C99.4868957,172.651962 99.6674256,171.907404 99.8581555,171.118987 C100.100902,170.118423 100.350787,169.08318 101.20244,168.316183 C102.501849,167.145287 103.938949,167.422712 104.723286,168.175431 C105.470904,168.89041 105.814626,170.221437 104.799781,171.451489 C103.104635,173.507695 99.6613066,174.046225 99.5144342,174.068664 C99.4899562,174.071724 99.4634362,174.073764 99.4389581,174.073764 L99.4389581,174.073764 L99.4389581,174.073764 Z M103.098515,168.54669 C102.722157,168.54669 102.2999,168.698662 101.885803,169.074001 C101.268737,169.62885 101.065768,170.470304 100.84954,171.359694 C100.731227,171.844167 100.611894,172.33884 100.424224,172.817194 C101.489044,172.52039 103.097496,171.912503 104.012385,170.802805 C104.616192,170.070485 104.449941,169.325927 104.017485,168.91183 C103.785957,168.689482 103.462635,168.54669 103.098515,168.54669 L103.098515,168.54669 L103.098515,168.54669 Z" id="Fill-51" fill="#A48FD7"></path>
                                    <path d="M97.1287862,175.730152 C96.9502954,175.730152 96.7820054,175.636317 96.6891898,175.478226 C96.5412979,175.2263 96.3016118,175.088607 95.9691099,174.898898 C95.4315997,174.591895 94.7635373,174.210436 94.282124,173.171113 C93.8639465,172.267443 94.2260271,171.313797 95.1613148,170.849722 C95.9721704,170.448884 97.0920682,170.517221 97.5765408,171.43313 C98.2884624,172.776395 97.6917946,175.093708 97.6214179,175.353793 C97.5673613,175.552682 97.4000909,175.698534 97.1971229,175.726072 C97.1736643,175.729132 97.1512243,175.730152 97.1287862,175.730152 L97.1287862,175.730152 L97.1287862,175.730152 Z M96.141481,171.638138 C95.9568708,171.638138 95.7620616,171.691176 95.6141698,171.763592 C95.4040619,171.867626 94.9440673,172.172589 95.2082322,172.742738 C95.5519537,173.486277 96.0007286,173.742282 96.4750022,174.013587 C96.5871965,174.077844 96.7014298,174.14312 96.813623,174.214516 C96.9268368,173.454658 96.9757939,172.477552 96.6759312,171.911484 C96.569857,171.711575 96.362808,171.638138 96.141481,171.638138 L96.141481,171.638138 L96.141481,171.638138 Z" id="Fill-52" fill="#A48FD7"></path>
                                </g>
                            </g>
                        </g>
                    </g>
                </g>
            </g>
        </g>
    </g>
</svg>