<?xml version="1.0" encoding="UTF-8"?>
<svg width="240px" height="288px" viewBox="0 0 240 288" version="1.1" xmlns="http://www.w3.org/2000/svg" xmlns:xlink="http://www.w3.org/1999/xlink" xmlns:sketch="http://www.bohemiancoding.com/sketch/ns">
    <!-- Generator: Sketch 3.3.3 (12081) - http://www.bohemiancoding.com/sketch -->
    <title>html</title>
    <desc>Created with Sketch.</desc>
    <defs></defs>
    <g id="Page-1" stroke="none" stroke-width="1" fill="none" fill-rule="evenodd" sketch:type="MSPage">
        <g id="html" sketch:type="MSLayerGroup" transform="translate(-0.484375, -0.234375)">
            <g id="Page-1" sketch:type="MSShapeGroup">
                <g id="html">
                    <g id="Page-1">
                        <g id="html">
                            <g id="Page-1">
                                <g id="Imported-Layers" transform="translate(0.000000, 0.119870)">
                                    <path d="M0.684406779,0.204406779 L239.849492,0.204406779 L239.849492,287.717288 L0.684406779,287.717288 L0.684406779,0.204406779 L0.684406779,0.204406779 Z" id="Fill-1" fill="#4CD1AB"></path>
                                    <path d="M179.296271,152.262712 C179.296271,183.958983 153.602034,209.653221 121.904745,209.653221 C90.2094917,209.653221 64.5152542,183.958983 64.5152542,152.262712 C64.5152542,120.56644 90.2094917,94.8732206 121.904745,94.8732206 C153.602034,94.8732206 179.296271,120.56644 179.296271,152.262712" id="Fill-2" fill="#07B29A"></path>
                                    <path d="M83.7691526,195.150508 L83.7691526,196.482712 L83.9511864,196.635255 C94.0088134,205.072881 106.977966,210.161695 121.134915,210.161695 C106.961695,210.160678 93.9976269,204.415932 83.9511864,195.987458 C83.8352542,195.889831 83.7691526,195.748474 83.7691526,195.597966 L83.7691526,195.150508" id="Fill-3" fill="#0D908C"></path>
                                    <path d="M158.509831,129.253221 L86.2993217,129.253221 C85.1847458,129.253221 84.278644,130.159322 84.278644,131.273898 L84.278644,195.597966 C94.2488134,203.961356 107.101017,209.653221 121.134915,209.653221 C136.393221,209.653221 150.250169,204.399661 160.531526,194.688813 L160.531526,131.273898 C160.531526,130.159322 159.624407,129.253221 158.509831,129.253221" id="Fill-4" fill="#FFFFFF"></path>
                                    <path d="M158.509831,129.253221 L158.509831,128.744745 L86.2993217,128.744745 C84.9020339,128.745763 83.7701695,129.878644 83.7691526,131.273898 L83.7691526,195.597966 C83.7691526,195.748474 83.8352542,195.889831 83.9511864,195.987458 C93.9976269,204.415932 106.961695,210.160678 121.134915,210.161695 C136.509153,210.162712 150.499322,204.865424 160.880339,195.057966 C160.981017,194.962373 161.038983,194.828136 161.038983,194.688813 L161.038983,131.273898 C161.037966,129.878644 159.907119,128.745763 158.509831,128.744745 L158.509831,129.762712 C159.342712,129.763729 160.02,130.442034 160.022034,131.273898 L160.022034,194.688813 L160.531526,194.688813 L160.181695,194.318644 C150.001017,203.934915 136.277288,209.143729 121.134915,209.144745 C107.241356,209.145763 94.5,203.508813 84.6040678,195.208474 L84.278644,195.597966 L84.7861017,195.597966 L84.7861017,131.273898 C84.7881356,130.442034 85.4654237,129.763729 86.2993217,129.762712 L158.509831,129.762712 L158.509831,129.253221" id="Fill-5" fill="#068989"></path>
                                    <path d="M125.572881,161.683729 L154.384068,161.683729 C154.664745,161.683729 154.892542,161.455932 154.892542,161.175255 C154.892542,160.894576 154.664745,160.666779 154.384068,160.666779 L125.572881,160.666779 C125.291187,160.666779 125.064407,160.894576 125.064407,161.175255 C125.064407,161.455932 125.291187,161.683729 125.572881,161.683729" id="Fill-6" fill="#068989"></path>
                                    <path d="M160.530508,143.304407 L84.278644,143.304407 L84.278644,131.380678 C84.278644,130.206102 85.2294915,129.253221 86.4050846,129.253221 L158.404068,129.253221 C159.578644,129.253221 160.530508,130.206102 160.530508,131.380678 L160.530508,143.304407" id="Fill-7" fill="#24D3B5"></path>
                                    <path d="M154.718644,90.2593217 C154.718644,90.9610166 154.151187,91.5294917 153.449492,91.5294917 C152.747797,91.5294917 152.179322,90.9610166 152.179322,90.2593217 C152.179322,89.5586443 152.747797,88.9901691 153.449492,88.9901691 C154.151187,88.9901691 154.718644,89.5586443 154.718644,90.2593217" id="Fill-8" fill="#068989"></path>
                                    <path d="M63.6915255,112.058644 C63.6915255,112.760339 63.1230508,113.328813 62.4223729,113.328813 C61.7206779,113.328813 61.1522034,112.760339 61.1522034,112.058644 C61.1522034,111.357966 61.7206779,110.789492 62.4223729,110.789492 C63.1230508,110.789492 63.6915255,111.357966 63.6915255,112.058644" id="Fill-9" fill="#068989"></path>
                                    <path d="M124.424745,94.862034 C124.424745,96.0010166 123.501356,96.924407 122.362373,96.924407 C121.22339,96.924407 120.298983,96.0010166 120.298983,94.862034 C120.298983,93.7230506 121.22339,92.7996609 122.362373,92.7996609 C123.501356,92.7996609 124.424745,93.7230506 124.424745,94.862034" id="Fill-10" fill="#068989"></path>
                                    <path d="M66.5471187,152.257627 C66.5471187,153.39661 65.6237288,154.32 64.4847458,154.32 C63.3447458,154.32 62.4223729,153.39661 62.4223729,152.257627 C62.4223729,151.118644 63.3447458,150.195255 64.4847458,150.195255 C65.6237288,150.195255 66.5471187,151.118644 66.5471187,152.257627" id="Fill-11" fill="#068989"></path>
                                    <path d="M181.338305,152.257627 C181.338305,153.39661 180.414915,154.32 179.275932,154.32 C178.136949,154.32 177.21356,153.39661 177.21356,152.257627 C177.21356,151.118644 178.136949,150.195255 179.275932,150.195255 C180.414915,150.195255 181.338305,151.118644 181.338305,152.257627" id="Fill-12" fill="#068989"></path>
                                    <path d="M85.0891526,143.802712 L157.622034,143.802712 C157.902712,143.802712 158.131526,143.574915 158.131526,143.294237 C158.131526,143.012542 157.902712,142.785763 157.622034,142.785763 L85.0891526,142.785763 C84.8084745,142.785763 84.5806779,143.012542 84.5806779,143.294237 C84.5806779,143.574915 84.8084745,143.802712 85.0891526,143.802712" id="Fill-13" fill="#068989"></path>
                                    <path d="M49.6189831,125.799661 L56.3115255,125.799661 C56.5922034,125.799661 56.8210169,125.571864 56.8210169,125.291187 C56.8210169,125.010508 56.5922034,124.782712 56.3115255,124.782712 L49.6189831,124.782712 C49.3383051,124.782712 49.1115255,125.010508 49.1115255,125.291187 C49.1115255,125.571864 49.3383051,125.799661 49.6189831,125.799661" id="Fill-14" fill="#068989"></path>
                                    <path d="M53.4742373,128.636949 L53.4742373,121.944407 C53.4742373,121.663729 53.2464407,121.435932 52.9657627,121.435932 C52.6840678,121.435932 52.4572881,121.663729 52.4572881,121.944407 L52.4572881,128.636949 C52.4572881,128.918644 52.6840678,129.145424 52.9657627,129.145424 C53.2464407,129.145424 53.4742373,128.918644 53.4742373,128.636949" id="Fill-15" fill="#068989"></path>
                                    <path d="M188.026779,174.051864 L194.719322,174.051864 C195,174.051864 195.227797,173.824068 195.227797,173.54339 C195.227797,173.261695 195,173.034915 194.719322,173.034915 L188.026779,173.034915 C187.746102,173.034915 187.518305,173.261695 187.518305,173.54339 C187.518305,173.824068 187.746102,174.051864 188.026779,174.051864" id="Fill-16" fill="#068989"></path>
                                    <path d="M191.882034,176.889153 L191.882034,170.19661 C191.882034,169.915932 191.654237,169.688136 191.372542,169.688136 C191.091864,169.688136 190.864068,169.915932 190.864068,170.19661 L190.864068,176.889153 C190.864068,177.169831 191.091864,177.397627 191.372542,177.397627 C191.654237,177.397627 191.882034,177.169831 191.882034,176.889153" id="Fill-17" fill="#068989"></path>
                                    <path d="M98.6989834,79.9494915 L98.6989834,81.6711864 C98.6989834,81.9518644 98.9267798,82.179661 99.2074579,82.179661 C99.488136,82.179661 99.7159315,81.9518644 99.7159315,81.6711864 L99.7159315,79.9494915 C99.7159315,79.6688136 99.488136,79.4410169 99.2074579,79.4410169 C98.9267798,79.4410169 98.6989834,79.6688136 98.6989834,79.9494915" id="Fill-18" fill="#068989"></path>
                                    <path d="M98.6989834,86.0542371 L98.6989834,87.7769494 C98.6989834,88.0576269 98.9267798,88.2854237 99.2074579,88.2854237 C99.488136,88.2854237 99.7159315,88.0576269 99.7159315,87.7769494 L99.7159315,86.0542371 C99.7159315,85.7735597 99.488136,85.5457627 99.2074579,85.5457627 C98.9267798,85.5457627 98.6989834,85.7735597 98.6989834,86.0542371" id="Fill-19" fill="#068989"></path>
                                    <path d="M103.198983,83.4325424 L101.477288,83.4325424 C101.19661,83.4325424 100.968813,83.660339 100.968813,83.9410169 C100.968813,84.2216949 101.19661,84.4494915 101.477288,84.4494915 L103.198983,84.4494915 C103.479661,84.4494915 103.707458,84.2216949 103.707458,83.9410169 C103.707458,83.660339 103.479661,83.4325424 103.198983,83.4325424" id="Fill-20" fill="#068989"></path>
                                    <path d="M97.0545763,83.4325424 L95.3328814,83.4325424 C95.0522031,83.4325424 94.8254237,83.660339 94.8254237,83.9410169 C94.8254237,84.2216949 95.0522031,84.4494915 95.3328814,84.4494915 L97.0545763,84.4494915 C97.3352544,84.4494915 97.5630509,84.2216949 97.5630509,83.9410169 C97.5630509,83.660339 97.3352544,83.4325424 97.0545763,83.4325424" id="Fill-21" fill="#068989"></path>
                                    <path d="M101.72644,80.7030508 L100.508136,81.920339 C100.310847,82.119661 100.310847,82.4410169 100.508136,82.6393221 C100.707458,82.838644 101.028813,82.838644 101.228136,82.6393221 L102.445424,81.4220339 C102.643729,81.2237288 102.643729,80.901356 102.445424,80.7030508 C102.247119,80.5047458 101.924745,80.5047458 101.72644,80.7030508" id="Fill-22" fill="#068989"></path>
                                    <path d="M102.445424,86.3033897 L101.228136,85.0861017 C101.028813,84.8877966 100.707458,84.8877966 100.508136,85.0861017 C100.310847,85.2844068 100.310847,85.6067797 100.508136,85.8050846 L101.72644,87.0223731 C101.924745,87.2216949 102.247119,87.2216949 102.445424,87.0223731 C102.643729,86.824068 102.643729,86.5027123 102.445424,86.3033897" id="Fill-23" fill="#068989"></path>
                                    <path d="M95.9572877,81.4220339 L97.1745763,82.6393221 C97.3728816,82.838644 97.6952544,82.838644 97.8945763,82.6393221 C98.0928816,82.4410169 98.0928816,82.119661 97.8945763,81.920339 L96.676271,80.7030508 C96.4779658,80.5047458 96.155593,80.5047458 95.9572877,80.7030508 C95.7589834,80.901356 95.7589834,81.2237288 95.9572877,81.4220339" id="Fill-24" fill="#068989"></path>
                                    <path d="M96.676271,87.0223731 L97.8945763,85.8050846 C98.0928816,85.6067797 98.0928816,85.2844068 97.8945763,85.0861017 C97.6952544,84.8877966 97.3728816,84.8877966 97.1745763,85.0861017 L95.9572877,86.3033897 C95.7589834,86.5027123 95.7589834,86.824068 95.9572877,87.0223731 C96.155593,87.2216949 96.4779658,87.2216949 96.676271,87.0223731" id="Fill-25" fill="#068989"></path>
                                    <path d="M167.284068,89.2027123 L166.774576,89.2027123 C166.772542,90.3447454 165.848136,91.268136 164.707119,91.2711866 C163.565085,91.268136 162.640678,90.3447454 162.638644,89.2027123 C162.640678,88.0606783 163.565085,87.1372877 164.707119,87.1352546 C165.848136,87.1372877 166.772542,88.0606783 166.774576,89.2027123 L167.791526,89.2027123 C167.791526,87.4993217 166.410508,86.1183051 164.707119,86.1183051 C163.002712,86.1183051 161.622712,87.4993217 161.622712,89.2027123 C161.622712,90.9071186 163.002712,92.2871186 164.707119,92.2871186 C166.410508,92.2871186 167.791526,90.9071186 167.791526,89.2027123 L167.284068,89.2027123" id="Fill-26" fill="#068989"></path>
                                    <path d="M163.900678,100.40339 L170.593221,100.40339 C170.873898,100.40339 171.101695,100.17661 171.101695,99.8949158 C171.101695,99.6142368 170.873898,99.3864403 170.593221,99.3864403 L163.900678,99.3864403 C163.618983,99.3864403 163.392203,99.6142368 163.392203,99.8949158 C163.392203,100.17661 163.618983,100.40339 163.900678,100.40339" id="Fill-27" fill="#DAF6F2"></path>
                                    <path d="M167.754915,103.241695 L167.754915,96.5491526 C167.754915,96.2684746 167.527119,96.0406781 167.247458,96.0406781 C166.965763,96.0406781 166.737966,96.2684746 166.737966,96.5491526 L166.737966,103.241695 C166.737966,103.522373 166.965763,103.750169 167.247458,103.750169 C167.527119,103.750169 167.754915,103.522373 167.754915,103.241695" id="Fill-28" fill="#DAF6F2"></path>
                                    <path d="M192.675255,156.891864 L192.675255,158.282034 C192.675255,158.562712 192.902034,158.789492 193.183729,158.789492 C193.46339,158.789492 193.692203,158.562712 193.692203,158.282034 L193.692203,156.891864 C193.692203,156.611187 193.46339,156.38339 193.183729,156.38339 C192.902034,156.38339 192.675255,156.611187 192.675255,156.891864" id="Fill-29" fill="#DAF6F2"></path>
                                    <path d="M192.675255,161.818983 L192.675255,163.209153 C192.675255,163.489831 192.902034,163.717627 193.183729,163.717627 C193.46339,163.717627 193.692203,163.489831 193.692203,163.209153 L193.692203,161.818983 C193.692203,161.538305 193.46339,161.310508 193.183729,161.310508 C192.902034,161.310508 192.675255,161.538305 192.675255,161.818983" id="Fill-30" fill="#DAF6F2"></path>
                                    <path d="M196.405424,159.605085 L195.015255,159.605085 C194.734576,159.605085 194.506779,159.832881 194.506779,160.11356 C194.506779,160.394237 194.734576,160.622034 195.015255,160.622034 L196.405424,160.622034 C196.686102,160.622034 196.913898,160.394237 196.913898,160.11356 C196.913898,159.832881 196.686102,159.605085 196.405424,159.605085" id="Fill-31" fill="#DAF6F2"></path>
                                    <path d="M191.445763,159.605085 L190.055593,159.605085 C189.774915,159.605085 189.548136,159.832881 189.548136,160.11356 C189.548136,160.394237 189.774915,160.622034 190.055593,160.622034 L191.445763,160.622034 C191.72644,160.622034 191.954237,160.394237 191.954237,160.11356 C191.954237,159.832881 191.72644,159.605085 191.445763,159.605085" id="Fill-32" fill="#DAF6F2"></path>
                                    <path d="M195.147458,157.430847 L194.164068,158.413221 C193.965763,158.611526 193.965763,158.933898 194.164068,159.132203 C194.362373,159.331526 194.684745,159.331526 194.884068,159.132203 L195.86644,158.149831 C196.064745,157.951526 196.064745,157.629153 195.86644,157.430847 C195.667119,157.231526 195.345763,157.231526 195.147458,157.430847" id="Fill-33" fill="#DAF6F2"></path>
                                    <path d="M195.86644,161.951187 L194.884068,160.968813 C194.684745,160.769492 194.362373,160.769492 194.164068,160.968813 C193.965763,161.167119 193.965763,161.488474 194.164068,161.687797 L195.147458,162.670169 C195.345763,162.868474 195.667119,162.868474 195.86644,162.670169 C196.064745,162.471864 196.064745,162.149492 195.86644,161.951187" id="Fill-34" fill="#DAF6F2"></path>
                                    <path d="M190.489831,158.149831 L191.472203,159.132203 C191.671526,159.331526 191.993898,159.331526 192.192203,159.132203 C192.390508,158.933898 192.390508,158.611526 192.192203,158.413221 L191.209831,157.430847 C191.011526,157.231526 190.689153,157.231526 190.489831,157.430847 C190.291526,157.629153 190.291526,157.951526 190.489831,158.149831" id="Fill-35" fill="#DAF6F2"></path>
                                    <path d="M191.209831,162.670169 L192.192203,161.687797 C192.390508,161.488474 192.390508,161.167119 192.192203,160.968813 C191.993898,160.769492 191.671526,160.769492 191.472203,160.968813 L190.489831,161.951187 C190.291526,162.149492 190.291526,162.471864 190.489831,162.670169 C190.689153,162.868474 191.011526,162.868474 191.209831,162.670169" id="Fill-36" fill="#DAF6F2"></path>
                                    <path d="M49.6189831,114.635593 L49.1115255,114.635593 C49.1084745,115.777627 48.1840678,116.701017 47.0430508,116.703051 C45.9,116.701017 44.9776271,115.777627 44.9745763,114.635593 C44.9776271,113.49356 45.9,112.569153 47.0430508,112.567119 C48.1840678,112.569153 49.1084745,113.49356 49.1115255,114.635593 L50.1274576,114.635593 C50.1274576,112.931187 48.7464407,111.551187 47.0430508,111.550169 C45.338644,111.551187 43.9576271,112.931187 43.9576271,114.635593 C43.9576271,116.338983 45.338644,117.72 47.0430508,117.72 C48.7464407,117.72 50.1274576,116.338983 50.1274576,114.635593 L49.6189831,114.635593" id="Fill-37" fill="#DAF6F2"></path>
                                    <path d="M97.3403395,148.974915 C96.6193219,148.065763 95.0410166,147.805424 94.4003391,147.829831 C93.9101691,147.848136 93.4789834,147.932542 93.0915257,148.147119 C92.6613557,147.785085 91.984068,147.598983 91.9210166,147.715932 C91.8427123,147.860339 92.0206783,148.624068 92.2077969,149.04 C92.0684743,149.307458 91.9454237,149.840339 91.9454237,150.271526 C91.9454237,150.676271 92.04,151.000678 92.1955929,151.267119 C91.6983051,151.329153 91.1705083,151.486779 90.6701691,151.822373 C91.0332206,151.830508 91.3342371,151.878305 91.5427123,151.936271 L91.4989834,151.975932 L91.4074577,152.057288 L91.191864,152.266779 L91.1806783,152.28 C91.0901691,152.375593 91.0027123,152.476271 90.9345763,152.583051 C91.5386443,152.374576 92.0115257,152.342034 92.1213557,152.412203 C92.2301691,152.48339 92.635932,152.438644 92.8088134,152.180339 L92.9349154,152.032881 C92.948136,152.714237 93.184068,153.499322 93.184068,153.499322 L93.1911866,153.528813 L93.3071186,153.888813 L93.3335597,153.972203 L93.366102,154.038305 L93.362034,154.040339 L93.3955929,154.096271 L93.415932,154.127797 L93.4942371,154.174576 L93.5074577,154.169492 L93.5755929,154.132881 L93.6030506,154.096271 L93.6305083,154.057627 L93.6254237,154.05356 L93.666102,153.978305 L93.6955929,153.895932 L93.8247454,153.645763 C93.8857629,153.569492 94.868136,153.564407 94.8996609,153.665085 C94.9301691,153.766779 95.0176269,154.002712 95.0176269,154.002712 L95.0491526,154.068813 L95.0450846,154.070847 L95.0786443,154.126779 L95.097966,154.158305 L95.1783051,154.205085 L95.1905083,154.2 L95.2586443,154.16339 L95.286102,154.125763 L95.3145763,154.088136 L95.3084743,154.083051 L95.3491526,154.008813 L95.3786443,153.92644 L95.5037289,153.562373 L95.5077969,153.548136 L95.5108474,153.541017 C95.5108474,153.541017 95.5728814,153.339661 95.6389834,153.053898 L95.7610166,153.147458 L95.8423731,153.197288 L95.8657629,153.209492 L95.8810166,153.218644 L95.9308474,153.241017 L95.9389834,153.245085 L95.942034,153.247119 L95.9847454,153.264407 L95.991864,153.267458 L96.0508474,153.285763 L96.0722035,153.290847 L96.136271,153.305085 L96.1779658,153.314237 L96.2003395,153.314237 L96.42,153.315255 L96.3396605,153.313221 L96.4657632,153.313221 C96.5674579,153.296949 96.6691526,153.26339 96.7677965,153.205424 L96.8410166,153.157627 L96.8766106,153.130169 L96.9091526,153.100678 L96.9325421,153.079322 L96.9661018,153.043729 L97.0220342,152.975593 C97.0901693,152.883051 97.1511869,152.774237 97.1664403,152.652203 C97.2416947,152.056271 96.8186438,151.803051 96.5522035,151.783729 C96.1311869,151.751187 95.9644071,151.940339 95.8993217,152.058305 C95.8484743,152.130508 95.817966,152.217966 95.815932,152.312542 C95.811864,152.564745 96.0142368,152.773221 96.2694922,152.778305 L96.2735597,152.777288 L96.428136,152.748813 L96.488136,152.721356 L96.5369491,152.689831 L96.6020342,152.647119 L96.583729,152.692881 L96.5684746,152.721356 L96.564407,152.728474 L96.5501693,152.747797 L96.4993219,152.802712 L96.368136,152.873898 L96.2176272,152.898305 L96.144407,152.893221 L96.1088131,152.888136 L96.0742368,152.878983 L96.0091526,152.858644 L95.9511866,152.833221 L95.8637289,152.78644 L95.7132206,152.681695 C95.7549154,152.446779 95.7854237,152.192542 95.7864403,151.95661 C96.3803395,151.68 96.7708474,151.174576 96.7789834,150.357966 C96.7820342,150.03356 96.7230509,149.614576 96.6284746,149.344068 L96.6935597,149.327797 L96.8583053,149.275932 L96.9406781,149.245424 L97.0210166,149.213898 L97.1583053,149.151864 L97.2122035,149.12339 L97.2528816,149.1 L97.2772877,149.082712 L97.2854237,149.07661 L97.284407,149.07356 L97.2752544,149.078644 L97.26,149.085763 L97.3403395,148.974915" id="Fill-38" fill="#068989"></path>
                                    <path d="M137.338983,152.153898 L132.307119,152.153898 C132.027458,152.153898 131.801695,151.927119 131.801695,151.648474 L131.801695,151.362712 C131.801695,151.083051 132.027458,150.857288 132.307119,150.857288 L137.338983,150.857288 C137.617627,150.857288 137.844407,151.083051 137.844407,151.362712 L137.844407,151.648474 C137.844407,151.927119 137.617627,152.153898 137.338983,152.153898" id="Fill-39" fill="#068989"></path>
                                    <path d="M146.391864,152.153898 L141.36,152.153898 C141.081356,152.153898 140.854576,151.927119 140.854576,151.648474 L140.854576,151.362712 C140.854576,151.083051 141.081356,150.857288 141.36,150.857288 L146.391864,150.857288 C146.670508,150.857288 146.897288,151.083051 146.897288,151.362712 L146.897288,151.648474 C146.897288,151.927119 146.670508,152.153898 146.391864,152.153898" id="Fill-40" fill="#068989"></path>
                                    <path d="M155.444745,152.153898 L150.413898,152.153898 C150.134237,152.153898 149.908474,151.927119 149.908474,151.648474 L149.908474,151.362712 C149.908474,151.083051 150.134237,150.857288 150.413898,150.857288 L155.444745,150.857288 C155.724407,150.857288 155.950169,151.083051 155.950169,151.362712 L155.950169,151.648474 C155.950169,151.927119 155.724407,152.153898 155.444745,152.153898" id="Fill-41" fill="#068989"></path>
                                    <path d="M125.572881,167.221017 L154.384068,167.221017 C154.664745,167.221017 154.892542,166.993221 154.892542,166.712542 C154.892542,166.431864 154.664745,166.204068 154.384068,166.204068 L125.572881,166.204068 C125.291187,166.204068 125.064407,166.431864 125.064407,166.712542 C125.064407,166.993221 125.291187,167.221017 125.572881,167.221017" id="Fill-42" fill="#068989"></path>
                                    <path d="M125.572881,172.758305 L140.901356,172.758305 C141.181017,172.758305 141.408813,172.530508 141.408813,172.249831 C141.408813,171.969153 141.181017,171.741356 140.901356,171.741356 L125.572881,171.741356 C125.291187,171.741356 125.064407,171.969153 125.064407,172.249831 C125.064407,172.530508 125.291187,172.758305 125.572881,172.758305" id="Fill-43" fill="#068989"></path>
                                    <path d="M91.5406783,160.960678 L115.76339,160.960678 L115.76339,175.172542 L91.5406783,175.172542 L91.5406783,160.960678 L91.5406783,160.960678 Z" id="Fill-44" fill="#B5E9E1"></path>
                                    <path d="M118.325085,175.172542 L118.325085,174.664068 L92.0491526,174.664068 L92.0491526,158.937966 L117.81661,158.937966 L117.81661,175.172542 L118.325085,175.172542 L118.325085,174.664068 L118.325085,175.172542 L118.832542,175.172542 L118.832542,158.429492 C118.832542,158.293221 118.780678,158.166102 118.685085,158.069492 C118.588474,157.973898 118.460339,157.921017 118.325085,157.921017 L91.5406783,157.921017 C91.4074577,157.921017 91.2762711,157.974915 91.1816949,158.069492 C91.0871186,158.164068 91.0322031,158.295255 91.0322031,158.429492 L91.0322031,175.172542 C91.0322031,175.306779 91.0871186,175.437966 91.1816949,175.532542 C91.2762711,175.627119 91.4074577,175.681017 91.5406783,175.681017 L118.325085,175.681017 C118.460339,175.681017 118.588474,175.628136 118.685085,175.532542 C118.780678,175.435932 118.832542,175.308813 118.832542,175.172542 L118.325085,175.172542" id="Fill-45" fill="#068989"></path>
                                    <path d="M91.5406783,182.156949 L151.82339,182.156949 L151.82339,196.367797 L91.5406783,196.367797 L91.5406783,182.156949 L91.5406783,182.156949 Z" id="Fill-46" fill="#24D3B0"></path>
                                    <path d="M92.571864,136.242712 C92.571864,136.944407 91.9972877,137.512881 91.2884743,137.512881 C90.5786443,137.512881 90.004068,136.944407 90.004068,136.242712 C90.004068,135.542034 90.5786443,134.972542 91.2884743,134.972542 C91.9972877,134.972542 92.571864,135.542034 92.571864,136.242712" id="Fill-47" fill="#1AA8A4"></path>
                                    <path d="M92.571864,136.242712 L92.0633897,136.242712 C92.0623731,136.658644 91.7206783,137.00339 91.2884743,137.004407 C90.8552546,137.00339 90.5135597,136.658644 90.5125423,136.242712 C90.5135597,135.826779 90.8552546,135.482034 91.2884743,135.481017 C91.7206783,135.482034 92.0623731,135.826779 92.0633897,136.242712 L93.0803391,136.242712 C93.0793217,135.256271 92.2728814,134.466102 91.2884743,134.464068 C90.302034,134.466102 89.4966103,135.256271 89.4955929,136.242712 C89.4966103,137.229153 90.302034,138.019322 91.2884743,138.021356 C92.2728814,138.019322 93.0793217,137.229153 93.0803391,136.242712 L92.571864,136.242712" id="Fill-48" fill="#068989"></path>
                                    <path d="M97.5477965,136.242712 C97.5477965,136.944407 96.9732202,137.512881 96.2633894,137.512881 C95.5545763,137.512881 94.98,136.944407 94.98,136.242712 C94.98,135.542034 95.5545763,134.972542 96.2633894,134.972542 C96.9732202,134.972542 97.5477965,135.542034 97.5477965,136.242712" id="Fill-49" fill="#1AA8A4"></path>
                                    <path d="M97.5477965,136.242712 L97.0393219,136.242712 C97.0383053,136.658644 96.6966106,137.004407 96.2633894,137.004407 C95.8311866,137.004407 95.4884743,136.658644 95.4874577,136.242712 C95.4884743,135.826779 95.8311866,135.482034 96.2633894,135.481017 C96.6966106,135.482034 97.0383053,135.826779 97.0393219,136.242712 L98.056271,136.242712 C98.0552544,135.256271 97.2498307,134.466102 96.2633894,134.464068 C95.277966,134.466102 94.4725423,135.256271 94.4715257,136.242712 C94.4725423,137.229153 95.277966,138.019322 96.2633894,138.021356 C97.2498307,138.019322 98.0552544,137.229153 98.056271,136.242712 L97.5477965,136.242712" id="Fill-50" fill="#068989"></path>
                                    <path d="M102.523729,136.242712 C102.523729,136.944407 101.948136,137.512881 101.239322,137.512881 C100.530508,137.512881 99.9549158,136.944407 99.9549158,136.242712 C99.9549158,135.542034 100.530508,134.972542 101.239322,134.972542 C101.948136,134.972542 102.523729,135.542034 102.523729,136.242712" id="Fill-51" fill="#1AA8A4"></path>
                                    <path d="M102.523729,136.242712 L102.015255,136.242712 C102.014237,136.658644 101.671526,137.004407 101.239322,137.004407 C100.807119,137.004407 100.464407,136.658644 100.46339,136.242712 C100.464407,135.826779 100.807119,135.482034 101.239322,135.481017 C101.671526,135.482034 102.014237,135.826779 102.015255,136.242712 L103.031187,136.242712 C103.030169,135.256271 102.224745,134.466102 101.239322,134.464068 C100.252881,134.466102 99.4474579,135.256271 99.4464403,136.242712 C99.4474579,137.229153 100.252881,138.019322 101.239322,138.021356 C102.224745,138.019322 103.030169,137.229153 103.031187,136.242712 L102.523729,136.242712" id="Fill-52" fill="#068989"></path>
                                    <path d="M154.355593,196.367797 L154.355593,195.859322 L92.0491526,195.859322 L92.0491526,180.133221 L153.847119,180.133221 L153.847119,196.367797 L154.355593,196.367797 L154.355593,195.859322 L154.355593,196.367797 L154.863051,196.367797 L154.863051,179.624745 C154.863051,179.488474 154.811187,179.361356 154.715593,179.264745 C154.618983,179.169153 154.490847,179.116271 154.355593,179.116271 L91.5406783,179.116271 C91.4074577,179.116271 91.2762711,179.170169 91.1816949,179.264745 C91.0871186,179.359322 91.0322031,179.490508 91.0322031,179.624745 L91.0322031,196.367797 C91.0322031,196.502034 91.0871186,196.632203 91.1816949,196.727797 C91.2762711,196.822373 91.4074577,196.876271 91.5406783,196.876271 L154.355593,196.876271 C154.490847,196.876271 154.618983,196.82339 154.715593,196.726779 C154.811187,196.631187 154.863051,196.504068 154.863051,196.367797 L154.355593,196.367797" id="Fill-53" fill="#068989"></path>
                                    <path d="M158.509831,129.253221 L158.509831,128.744745 L86.2993217,128.744745 C84.9020339,128.745763 83.7701695,129.878644 83.7691526,131.274915 L83.7691526,195.597966 C83.7691526,195.748474 83.8352542,195.889831 83.9511864,195.987458 C93.9976269,204.414915 106.960678,210.161695 121.133898,210.161695 C136.509153,210.162712 150.499322,204.865424 160.879322,195.057966 C160.981017,194.962373 161.038983,194.828136 161.038983,194.688813 L161.038983,131.274915 C161.038983,129.878644 159.906102,128.745763 158.509831,128.744745 L158.509831,129.761695 C159.342712,129.763729 160.02,130.441017 160.022034,131.274915 L160.022034,194.688813 L160.530508,194.688813 L160.181695,194.318644 C150.001017,203.935932 136.277288,209.143729 121.133898,209.144745 C107.241356,209.145763 94.5,203.508813 84.6050847,195.208474 L84.278644,195.597966 L84.7861017,195.597966 L84.7861017,131.274915 C84.7881356,130.441017 85.4654237,129.763729 86.2993217,129.761695 L158.509831,129.761695 L158.509831,129.253221" id="Fill-54" fill="#068989"></path>
                                    <path d="M65.6827119,143.369492 C69.4708474,119.216949 88.4633897,100.102373 112.554915,96.1311869 C112.831526,96.0854237 113.019661,95.824068 112.973898,95.5464403 C112.928136,95.2698309 112.666779,95.0816949 112.390169,95.1274577 C87.8633897,99.1728816 68.5372881,118.623051 64.6779661,143.211864 C64.6342373,143.489492 64.8244068,143.749831 65.1020339,143.792542 C65.379661,143.836271 65.64,143.647119 65.6837288,143.369492 L65.6827119,143.369492" id="Fill-55" fill="#068989"></path>
                                    <path d="M178.016949,161.516949 C173.596271,188.529153 150.144407,209.145763 121.880339,209.144745 C93.1698309,209.145763 69.4261017,187.875255 65.5474576,160.23661 C65.5088136,159.957966 65.2515255,159.764745 64.9738983,159.80339 C64.6952542,159.842034 64.5020339,160.099322 64.5406779,160.377966 C68.4894915,188.514915 92.6562711,210.160678 121.880339,210.161695 C150.650847,210.160678 174.520678,189.18 179.021695,161.680678 C179.06644,161.404068 178.879322,161.142712 178.601695,161.096949 C178.324068,161.052203 178.062712,161.239322 178.017966,161.516949 L178.016949,161.516949" id="Fill-56" fill="#068989"></path>
                                    <path d="M131.028813,96.1027123 C155.388813,100.039322 174.570508,119.452881 178.161356,143.926779 C178.202034,144.205424 178.460339,144.397627 178.738983,144.356949 C179.01661,144.316271 179.208813,144.056949 179.169153,143.779322 C175.510169,118.863051 155.990847,99.1077965 131.191526,95.097966 C130.913898,95.0532206 130.652542,95.2423731 130.607797,95.5189834 C130.563051,95.7966103 130.752203,96.0569491 131.028813,96.1027123" id="Fill-57" fill="#068989"></path>
                                </g>
                            </g>
                        </g>
                    </g>
                </g>
            </g>
        </g>
    </g>
</svg>