<?xml version="1.0" encoding="UTF-8"?>
<svg width="240px" height="288px" viewBox="0 0 240 288" version="1.1" xmlns="http://www.w3.org/2000/svg" xmlns:xlink="http://www.w3.org/1999/xlink" xmlns:sketch="http://www.bohemiancoding.com/sketch/ns">
    <!-- Generator: Sketch 3.3.3 (12081) - http://www.bohemiancoding.com/sketch -->
    <title>swift</title>
    <desc>Created with Sketch.</desc>
    <defs></defs>
    <g id="Page-1" stroke="none" stroke-width="1" fill="none" fill-rule="evenodd" sketch:type="MSPage">
        <g id="swift" sketch:type="MSLayerGroup">
            <g id="Page-1" sketch:type="MSShapeGroup">
                <g id="swift">
                    <g id="Page-1">
                        <g id="swift">
                            <g id="Page-1">
                                <g id="Imported-Layers" transform="translate(0.000000, 0.239740)">
                                    <path d="M0.0610169492,0.203389831 L239.178305,0.203389831 L239.178305,287.717288 L0.0610169492,287.717288 L0.0610169492,0.203389831 L0.0610169492,0.203389831 Z" id="Fill-1" fill="#FFCE79"></path>
                                    <path d="M178.659661,152.272881 C178.659661,183.971187 152.962373,209.668474 121.264068,209.668474 C89.5647454,209.668474 63.8684745,183.971187 63.8684745,152.272881 C63.8684745,120.57356 89.5647454,94.8772877 121.264068,94.8772877 C152.962373,94.8772877 178.659661,120.57356 178.659661,152.272881" id="Fill-2" fill="#FFB039"></path>
                                    <path d="M154.052542,90.2745763 C154.052542,90.9762711 153.484068,91.5447454 152.78339,91.5447454 C152.081695,91.5447454 151.513221,90.9762711 151.513221,90.2745763 C151.513221,89.573898 152.081695,89.0054237 152.78339,89.0054237 C153.484068,89.0054237 154.052542,89.573898 154.052542,90.2745763" id="Fill-3" fill="#FF8D00"></path>
                                    <path d="M63.0254237,112.073898 C63.0254237,112.775593 62.4569492,113.344068 61.7562712,113.344068 C61.0545763,113.344068 60.4861017,112.775593 60.4861017,112.073898 C60.4861017,111.373221 61.0545763,110.804745 61.7562712,110.804745 C62.4569492,110.804745 63.0254237,111.373221 63.0254237,112.073898" id="Fill-4" fill="#FF8D00"></path>
                                    <path d="M123.758644,94.8772877 C123.758644,96.016271 122.835255,96.9396605 121.696271,96.9396605 C120.556271,96.9396605 119.632881,96.016271 119.632881,94.8772877 C119.632881,93.7383051 120.556271,92.8149154 121.696271,92.8149154 C122.835255,92.8149154 123.758644,93.7383051 123.758644,94.8772877" id="Fill-5" fill="#FF8D00"></path>
                                    <path d="M65.8810169,152.272881 C65.8810169,153.411864 64.9576271,154.335255 63.818644,154.335255 C62.678644,154.335255 61.7562712,153.411864 61.7562712,152.272881 C61.7562712,151.133898 62.678644,150.210508 63.818644,150.210508 C64.9576271,150.210508 65.8810169,151.133898 65.8810169,152.272881" id="Fill-6" fill="#FF8D00"></path>
                                    <path d="M180.672203,152.272881 C180.672203,153.411864 179.748813,154.335255 178.609831,154.335255 C177.470847,154.335255 176.54644,153.411864 176.54644,152.272881 C176.54644,151.133898 177.470847,150.210508 178.609831,150.210508 C179.748813,150.210508 180.672203,151.133898 180.672203,152.272881" id="Fill-7" fill="#FF8D00"></path>
                                    <path d="M55.6464407,125.814915 L48.9538983,125.814915 C48.6722034,125.814915 48.4454237,125.587119 48.4454237,125.30644 C48.4454237,125.024745 48.6722034,124.797966 48.9538983,124.797966 L55.6464407,124.797966 C55.9271187,124.797966 56.1549153,125.024745 56.1549153,125.30644 C56.1549153,125.587119 55.9271187,125.814915 55.6464407,125.814915" id="Fill-8" fill="#FF8D00"></path>
                                    <path d="M52.298644,129.160678 C52.0179661,129.160678 51.7911864,128.933898 51.7911864,128.652203 L51.7911864,121.959661 C51.7911864,121.678983 52.0179661,121.451187 52.298644,121.451187 C52.580339,121.451187 52.8081356,121.678983 52.8081356,121.959661 L52.8081356,128.652203 C52.8081356,128.933898 52.580339,129.160678 52.298644,129.160678" id="Fill-9" fill="#FF8D00"></path>
                                    <path d="M194.052203,174.066102 L187.359661,174.066102 C187.078983,174.066102 186.851187,173.839322 186.851187,173.557627 C186.851187,173.276949 187.078983,173.049153 187.359661,173.049153 L194.052203,173.049153 C194.333898,173.049153 194.560678,173.276949 194.560678,173.557627 C194.560678,173.839322 194.333898,174.066102 194.052203,174.066102" id="Fill-10" fill="#FF8D00"></path>
                                    <path d="M190.70644,177.412881 C190.425763,177.412881 190.197966,177.185085 190.197966,176.904407 L190.197966,170.211864 C190.197966,169.931187 190.425763,169.70339 190.70644,169.70339 C190.988136,169.70339 191.214915,169.931187 191.214915,170.211864 L191.214915,176.904407 C191.214915,177.185085 190.988136,177.412881 190.70644,177.412881" id="Fill-11" fill="#FF8D00"></path>
                                    <path d="M98.5423728,82.1949153 C98.2606781,82.1949153 98.0328816,81.9681356 98.0328816,81.6864407 L98.0328816,79.9647458 C98.0328816,79.6830508 98.2606781,79.4562712 98.5423728,79.4562712 C98.8230509,79.4562712 99.0498307,79.6830508 99.0498307,79.9647458 L99.0498307,81.6864407 C99.0498307,81.9681356 98.8230509,82.1949153 98.5423728,82.1949153" id="Fill-12" fill="#FF8D00"></path>
                                    <path d="M98.5423728,88.2996609 C98.2606781,88.2996609 98.0328816,88.0728814 98.0328816,87.7911866 L98.0328816,86.0694917 C98.0328816,85.7888134 98.2606781,85.5610169 98.5423728,85.5610169 C98.8230509,85.5610169 99.0498307,85.7888134 99.0498307,86.0694917 L99.0498307,87.7911866 C99.0498307,88.0728814 98.8230509,88.2996609 98.5423728,88.2996609" id="Fill-13" fill="#FF8D00"></path>
                                    <path d="M102.532881,84.4647458 L100.811187,84.4647458 C100.530508,84.4647458 100.302712,84.2369492 100.302712,83.9562712 C100.302712,83.6755932 100.530508,83.4477966 100.811187,83.4477966 L102.532881,83.4477966 C102.81356,83.4477966 103.041356,83.6755932 103.041356,83.9562712 C103.041356,84.2369492 102.81356,84.4647458 102.532881,84.4647458" id="Fill-14" fill="#FF8D00"></path>
                                    <path d="M96.3884746,84.4647458 L94.6667794,84.4647458 C94.3850846,84.4647458 94.1583051,84.2369492 94.1583051,83.9562712 C94.1583051,83.6755932 94.3850846,83.4477966 94.6667794,83.4477966 L96.3884746,83.4477966 C96.6701693,83.4477966 96.8969491,83.6755932 96.8969491,83.9562712 C96.8969491,84.2369492 96.6701693,84.4647458 96.3884746,84.4647458" id="Fill-15" fill="#FF8D00"></path>
                                    <path d="M100.202034,82.8040678 C100.071864,82.8040678 99.9416947,82.7542373 99.8430509,82.6545763 C99.643729,82.4562712 99.643729,82.1349153 99.8430509,81.9355932 L101.060339,80.7183051 C101.258644,80.52 101.581017,80.52 101.779322,80.7183051 C101.977627,80.9166102 101.977627,81.2389831 101.779322,81.4372881 L100.562034,82.6545763 C100.462373,82.7542373 100.332203,82.8040678 100.202034,82.8040678" id="Fill-16" fill="#FF8D00"></path>
                                    <path d="M101.419322,87.1871186 C101.289153,87.1871186 101.158983,87.1372877 101.060339,87.0376269 L99.8430509,85.8203391 C99.643729,85.6220339 99.643729,85.299661 99.8430509,85.101356 C100.041356,84.9030508 100.363729,84.9030508 100.562034,85.101356 L101.779322,86.3186443 C101.977627,86.517966 101.977627,86.8393217 101.779322,87.0376269 C101.679661,87.1372877 101.549492,87.1871186 101.419322,87.1871186" id="Fill-17" fill="#FF8D00"></path>
                                    <path d="M96.8684746,82.8040678 C96.7383053,82.8040678 96.608136,82.7542373 96.5084746,82.6545763 L95.2911866,81.4372881 C95.0928814,81.2389831 95.0928814,80.9166102 95.2911866,80.7183051 C95.4905083,80.52 95.811864,80.52 96.0101693,80.7183051 L97.2274579,81.9355932 C97.4267798,82.1349153 97.4267798,82.4562712 97.2274579,82.6545763 C97.1288131,82.7542373 96.9986438,82.8040678 96.8684746,82.8040678" id="Fill-18" fill="#FF8D00"></path>
                                    <path d="M95.6511866,87.1871186 C95.5210166,87.1871186 95.3908474,87.1372877 95.2911866,87.0376269 C95.0928814,86.8393217 95.0928814,86.517966 95.2911866,86.3186443 L96.5084746,85.101356 C96.7077965,84.9030508 97.0291526,84.9030508 97.2274579,85.101356 C97.4267798,85.299661 97.4267798,85.6220339 97.2274579,85.8203391 L96.0101693,87.0376269 C95.9115257,87.1372877 95.7813557,87.1871186 95.6511866,87.1871186" id="Fill-19" fill="#FF8D00"></path>
                                    <path d="M164.041017,92.3033897 C162.339661,92.3033897 160.955593,90.9193217 160.955593,89.217966 C160.955593,87.5176269 162.339661,86.1335597 164.041017,86.1335597 C165.742373,86.1335597 167.12644,87.5176269 167.12644,89.217966 C167.12644,90.9193217 165.742373,92.3033897 164.041017,92.3033897 L164.041017,92.3033897 L164.041017,92.3033897 Z M164.041017,87.1505083 C162.9,87.1505083 161.972542,88.077966 161.972542,89.217966 C161.972542,90.3589834 162.9,91.2864403 164.041017,91.2864403 C165.182034,91.2864403 166.109492,90.3589834 166.109492,89.217966 C166.109492,88.077966 165.182034,87.1505083 164.041017,87.1505083 L164.041017,87.1505083 L164.041017,87.1505083 Z" id="Fill-20" fill="#FF8D00"></path>
                                    <path d="M169.927119,100.418644 L163.234576,100.418644 C162.953898,100.418644 162.725085,100.191864 162.725085,99.9101693 C162.725085,99.6294922 162.953898,99.4016947 163.234576,99.4016947 L169.927119,99.4016947 C170.207797,99.4016947 170.435593,99.6294922 170.435593,99.9101693 C170.435593,100.191864 170.207797,100.418644 169.927119,100.418644" id="Fill-21" fill="#F1FFF9"></path>
                                    <path d="M166.581356,103.765424 C166.299661,103.765424 166.072881,103.537627 166.072881,103.256949 L166.072881,96.564407 C166.072881,96.2827123 166.299661,96.0559315 166.581356,96.0559315 C166.862034,96.0559315 167.089831,96.2827123 167.089831,96.564407 L167.089831,103.256949 C167.089831,103.537627 166.862034,103.765424 166.581356,103.765424" id="Fill-22" fill="#F1FFF9"></path>
                                    <path d="M192.51661,158.703051 C192.292881,158.703051 192.109831,158.521017 192.109831,158.296271 L192.109831,156.907119 C192.109831,156.682373 192.292881,156.500339 192.51661,156.500339 C192.741356,156.500339 192.924407,156.682373 192.924407,156.907119 L192.924407,158.296271 C192.924407,158.521017 192.741356,158.703051 192.51661,158.703051" id="Fill-23" fill="#F1FFF9"></path>
                                    <path d="M192.51661,163.631187 C192.292881,163.631187 192.109831,163.449153 192.109831,163.224407 L192.109831,161.834237 C192.109831,161.610508 192.292881,161.427458 192.51661,161.427458 C192.741356,161.427458 192.924407,161.610508 192.924407,161.834237 L192.924407,163.224407 C192.924407,163.449153 192.741356,163.631187 192.51661,163.631187" id="Fill-24" fill="#F1FFF9"></path>
                                    <path d="M195.739322,160.535593 L194.349153,160.535593 C194.125424,160.535593 193.942373,160.35356 193.942373,160.128813 C193.942373,159.904068 194.125424,159.722034 194.349153,159.722034 L195.739322,159.722034 C195.963051,159.722034 196.146102,159.904068 196.146102,160.128813 C196.146102,160.35356 195.963051,160.535593 195.739322,160.535593" id="Fill-25" fill="#F1FFF9"></path>
                                    <path d="M190.778644,160.535593 L189.389492,160.535593 C189.165763,160.535593 188.982712,160.35356 188.982712,160.128813 C188.982712,159.904068 189.165763,159.722034 189.389492,159.722034 L190.778644,159.722034 C191.00339,159.722034 191.18644,159.904068 191.18644,160.128813 C191.18644,160.35356 191.00339,160.535593 190.778644,160.535593" id="Fill-26" fill="#F1FFF9"></path>
                                    <path d="M193.857966,159.195255 C193.753221,159.195255 193.649492,159.154576 193.570169,159.075255 C193.410508,158.917627 193.410508,158.659322 193.570169,158.500678 L194.552542,157.518305 C194.711187,157.358644 194.969492,157.358644 195.128136,157.518305 C195.286779,157.675932 195.286779,157.934237 195.128136,158.092881 L194.145763,159.075255 C194.06644,159.154576 193.961695,159.195255 193.857966,159.195255" id="Fill-27" fill="#F1FFF9"></path>
                                    <path d="M194.840339,162.732203 C194.735593,162.732203 194.631864,162.692542 194.552542,162.613221 L193.570169,161.630847 C193.410508,161.471187 193.410508,161.213898 193.570169,161.055255 C193.728813,160.89661 193.987119,160.89661 194.145763,161.055255 L195.128136,162.037627 C195.286779,162.197288 195.286779,162.454576 195.128136,162.613221 C195.048813,162.692542 194.944068,162.732203 194.840339,162.732203" id="Fill-28" fill="#F1FFF9"></path>
                                    <path d="M191.166102,159.195255 C191.062373,159.195255 190.957627,159.154576 190.878305,159.075255 L189.895932,158.092881 C189.737288,157.934237 189.737288,157.675932 189.895932,157.518305 C190.055593,157.358644 190.312881,157.358644 190.472542,157.518305 L191.454915,158.500678 C191.61356,158.659322 191.61356,158.917627 191.454915,159.075255 C191.374576,159.154576 191.270847,159.195255 191.166102,159.195255" id="Fill-29" fill="#F1FFF9"></path>
                                    <path d="M190.183729,162.732203 C190.08,162.732203 189.976271,162.692542 189.895932,162.613221 C189.737288,162.454576 189.737288,162.197288 189.895932,162.037627 L190.878305,161.055255 C191.036949,160.89661 191.296271,160.89661 191.454915,161.055255 C191.61356,161.213898 191.61356,161.471187 191.454915,161.630847 L190.472542,162.613221 C190.393221,162.692542 190.288474,162.732203 190.183729,162.732203" id="Fill-30" fill="#F1FFF9"></path>
                                    <path d="M46.3759322,117.735255 C44.6755932,117.735255 43.2915255,116.351187 43.2915255,114.650847 C43.2915255,112.949492 44.6755932,111.565424 46.3759322,111.565424 C48.0772881,111.565424 49.4623729,112.949492 49.4623729,114.650847 C49.4623729,116.351187 48.0772881,117.735255 46.3759322,117.735255 L46.3759322,117.735255 L46.3759322,117.735255 Z M46.3759322,112.582373 C45.2359322,112.582373 44.3084745,113.509831 44.3084745,114.650847 C44.3084745,115.790847 45.2359322,116.718305 46.3759322,116.718305 C47.5169492,116.718305 48.4454237,115.790847 48.4454237,114.650847 C48.4454237,113.509831 47.5169492,112.582373 46.3759322,112.582373 L46.3759322,112.582373 L46.3759322,112.582373 Z" id="Fill-31" fill="#F1FFF9"></path>
                                    <path d="M64.5915255,143.813898 C64.5640678,143.813898 64.538644,143.811864 64.5111864,143.807797 C64.2335593,143.764068 64.0444068,143.503729 64.0881356,143.226102 C67.9616949,118.532542 87.1362711,99.2094922 111.799322,95.1427123 C112.070847,95.0969494 112.339322,95.284068 112.384068,95.5616949 C112.429831,95.8383051 112.241695,96.1006781 111.965085,96.1464403 C87.7352546,100.141017 68.8983051,119.124407 65.0928813,143.384745 C65.0532203,143.634915 64.8366102,143.813898 64.5915255,143.813898" id="Fill-32" fill="#FF8D00"></path>
                                    <path d="M121.288474,210.176949 C92.584068,210.176949 67.9342373,188.774237 63.9508474,160.392203 C63.9122034,160.114576 64.1054237,159.857288 64.3830508,159.818644 C64.6484745,159.774915 64.9179661,159.972203 64.9576271,160.251864 C68.8708474,188.13356 93.0874577,209.16 121.288474,209.16 C149.300339,209.16 172.908813,189.129153 177.427119,161.532203 C177.472881,161.25356 177.736271,161.068474 178.010847,161.112203 C178.287458,161.157966 178.475593,161.419322 178.429831,161.695932 C173.832203,189.787119 149.801695,210.176949 121.288474,210.176949" id="Fill-33" fill="#FF8D00"></path>
                                    <path d="M178.072881,144.377288 C177.824745,144.377288 177.608136,144.195255 177.570508,143.943051 C173.957288,119.309492 155.014576,100.090169 130.437966,96.1179658 C130.160339,96.0732202 129.972203,95.811864 130.017966,95.5342371 C130.061695,95.2566103 130.330169,95.0664403 130.600678,95.1132206 C155.617627,99.1576272 174.897966,118.720678 178.578305,143.794576 C178.618983,144.072203 178.425763,144.330508 178.148136,144.371187 C178.122712,144.375255 178.098305,144.377288 178.072881,144.377288" id="Fill-34" fill="#FF8D00"></path>
                                    <path d="M92.9369494,139.729831 L150.132203,139.729831 L150.132203,133.240678 C150.132203,130.443051 147.864407,128.176271 145.067797,128.176271 L96.9538982,128.176271 C94.1572877,128.176271 91.8884743,130.443051 91.8884743,133.240678 L91.8884743,201.335593 C100.576271,206.622712 110.776271,209.668474 121.689153,209.668474 C132.041695,209.668474 141.745424,206.91356 150.132203,202.117627 L150.132203,139.729831 L92.9369494,139.729831" id="Fill-35" fill="#FFFFFF"></path>
                                    <path d="M150.132203,139.729831 L91.8884743,139.729831 L91.8884743,133.395255 C91.8884743,130.512203 94.2254237,128.176271 97.1084746,128.176271 L144.913221,128.176271 C147.795255,128.176271 150.132203,130.512203 150.132203,133.395255 L150.132203,139.729831" id="Fill-36" fill="#FFD9A0"></path>
                                    <path id="Fill-37" fill="#FFFFFF" d="M130.216271,134.102034 L118.520339,134.102034 L130.216271,134.102034"></path>
                                    <path d="M130.216271,134.610508 L118.520339,134.610508 C118.239661,134.610508 118.011864,134.383729 118.011864,134.102034 C118.011864,133.821356 118.239661,133.59356 118.520339,133.59356 L130.216271,133.59356 C130.496949,133.59356 130.724745,133.821356 130.724745,134.102034 C130.724745,134.383729 130.496949,134.610508 130.216271,134.610508" id="Fill-38" fill="#FF8D00"></path>
                                    <path d="M114.344745,134.102034 C114.344745,134.803729 113.776271,135.372203 113.074576,135.372203 C112.373898,135.372203 111.805424,134.803729 111.805424,134.102034 C111.805424,133.401356 112.373898,132.831864 113.074576,132.831864 C113.776271,132.831864 114.344745,133.401356 114.344745,134.102034" id="Fill-39" fill="#FFE8C6"></path>
                                    <path d="M113.074576,135.880678 C112.094237,135.880678 111.295932,135.08339 111.295932,134.102034 C111.295932,133.121695 112.094237,132.324407 113.074576,132.324407 C114.055932,132.324407 114.853221,133.121695 114.853221,134.102034 C114.853221,135.08339 114.055932,135.880678 113.074576,135.880678 L113.074576,135.880678 L113.074576,135.880678 Z M113.074576,133.341356 C112.654576,133.341356 112.312881,133.683051 112.312881,134.102034 C112.312881,134.522034 112.654576,134.863729 113.074576,134.863729 C113.494576,134.863729 113.836271,134.522034 113.836271,134.102034 C113.836271,133.683051 113.494576,133.341356 113.074576,133.341356 L113.074576,133.341356 L113.074576,133.341356 Z" id="Fill-40" fill="#FF8D00"></path>
                                    <path d="M130.482712,188.343051 C134.804745,186.15356 137.934915,186.127119 139.775593,187.837627 C140.189492,188.222034 140.787458,188.113221 141.102712,187.737966 C140.804745,186.3 140.140678,184.632203 138.771864,182.911526 C138.548136,182.630847 138.476949,182.24644 138.642712,181.928136 C138.804407,181.617966 138.925424,181.197966 139.018983,180.72 C138.93356,180.606102 138.862373,180.494237 138.771864,180.379322 C138.548136,180.098644 138.476949,179.714237 138.642712,179.395932 C138.885763,178.929153 139.04644,178.237627 139.128813,177.407797 C138.740339,172.697288 136.978983,167.296271 130.56,161.184407 C130.071864,160.719661 129.268474,160.95661 129.051864,161.810847 C130.325085,164.929831 131.590169,167.692881 131.355255,170.548474 C131.495593,172.375932 131.377627,174.079322 130.924068,175.422712 C130.726779,176.007458 130.044407,176.258644 129.526779,175.922034 C127.46644,174.586779 122.798644,171.049831 118.805085,167.804745 C118.530508,167.581017 118.231526,167.55661 117.968136,167.637966 C117.912203,167.995932 117.640678,168.293898 117.293898,168.397627 C117.259322,168.628474 117.307119,168.87661 117.492203,169.108474 C117.585763,169.22644 117.679322,169.34339 117.772881,169.460339 C118.449153,170.305424 117.377288,171.429153 116.499661,170.794576 C115.543729,170.104068 114.555255,169.378983 113.592203,168.661017 C113.454915,168.559322 113.315593,168.512542 113.176271,168.489153 C116.773221,172.753221 121.096271,177.463729 123.890847,179.642034 C124.438983,180.070169 124.325085,180.931526 123.69356,181.221356 C123.487119,181.315932 123.257288,181.38 123.040678,181.46339 C123.331526,181.712542 123.62644,181.968813 123.890847,182.175255 C124.438983,182.602373 124.325085,183.463729 123.69356,183.75356 C119.72339,185.572881 113.883051,185.28 108.697627,183.196271 C116.582034,190.295593 125.020678,191.110169 130.482712,188.343051" id="Fill-41" fill="#FFCE85"></path>
                                    <path d="M113.354237,163.637288 C113.223051,163.637288 113.091864,163.58644 112.992203,163.485763 L106.88644,157.303729 C106.688136,157.10339 106.690169,156.782034 106.889492,156.584745 C107.090847,156.387458 107.412203,156.389492 107.609492,156.588813 L113.715255,162.770847 C113.91356,162.971187 113.911526,163.292542 113.712203,163.490847 C113.612542,163.588474 113.48339,163.637288 113.354237,163.637288" id="Fill-42" fill="#FF9900"></path>
                                    <path d="M110.864745,166.096271 C110.73356,166.096271 110.602373,166.045424 110.502712,165.945763 L102.142373,157.480678 C101.944068,157.281356 101.946102,156.958983 102.145424,156.761695 C102.345763,156.564407 102.667119,156.567458 102.864407,156.765763 L111.225763,165.230847 C111.424068,165.430169 111.421017,165.752542 111.221695,165.949831 C111.122034,166.047458 110.993898,166.096271 110.864745,166.096271" id="Fill-43" fill="#FFD9A0"></path>
                                    <path d="M107.883051,168.056949 C107.751864,168.056949 107.620678,168.006102 107.521017,167.90644 L101.415255,161.724407 C101.216949,161.524068 101.218983,161.202712 101.418305,161.004407 C101.619661,160.807119 101.941017,160.810169 102.137288,161.009492 L108.244068,167.191526 C108.442373,167.391864 108.440339,167.713221 108.241017,167.910508 C108.141356,168.009153 108.012203,168.056949 107.883051,168.056949" id="Fill-44" fill="#FF9900"></path>
                                    <path d="M105.709831,155.899322 C105.578644,155.899322 105.447458,155.848474 105.348813,155.747797 L104.365424,154.752203 C104.168136,154.552881 104.170169,154.230508 104.369492,154.033221 C104.568813,153.835932 104.890169,153.837966 105.088474,154.037288 L106.071864,155.032881 C106.269153,155.233221 106.267119,155.554576 106.067797,155.752881 C105.968136,155.850508 105.838983,155.899322 105.709831,155.899322" id="Fill-45" fill="#FF9900"></path>
                                    <path d="M100.239661,160.32 C100.108474,160.32 99.9772877,160.269153 99.8786438,160.168474 L97.9108474,158.176271 C97.7135597,157.976949 97.715593,157.654576 97.9149158,157.457288 C98.1152544,157.26 98.4376272,157.263051 98.6338982,157.461356 L100.601695,159.45356 C100.798983,159.653898 100.796949,159.975255 100.597627,160.172542 C100.497966,160.271187 100.368813,160.32 100.239661,160.32" id="Fill-46" fill="#FF9900"></path>
                                    <path d="M123.918305,192.849153 C119.023729,192.849153 113.055255,190.804068 107.206779,185.04 C106.710508,184.550847 106.634237,183.800339 107.018644,183.215593 C107.407119,182.626779 108.101695,182.412203 108.749492,182.675593 C113.910508,184.785763 119.691864,185.027797 123.482034,183.290847 C123.620339,183.227797 123.712881,183.098644 123.731187,182.946102 C123.739322,182.877966 123.740339,182.702034 123.578644,182.575932 C120.48,180.160678 115.527458,174.663051 111.92644,170.324745 C111.445424,169.746102 111.470847,168.961017 111.988474,168.415932 C112.506102,167.869831 113.290169,167.801695 113.895255,168.253221 C114.857288,168.969153 115.843729,169.693221 116.797627,170.382712 C117.073221,170.583051 117.291864,170.393898 117.350847,170.330847 C117.410847,170.268813 117.588813,170.044068 117.375255,169.777627 L117.09356,169.424745 C116.620678,168.829831 116.667458,168.038644 117.207458,167.502712 C117.748474,166.969831 118.535593,166.930169 119.12644,167.410169 C123.097627,170.637966 127.787797,174.189153 129.80339,175.495932 C129.951864,175.59356 130.095255,175.565085 130.168474,175.540678 C130.297627,175.495932 130.397288,175.393221 130.443051,175.26 C131.48644,172.16339 130.742034,166.808136 128.672542,162.525763 C128.375593,161.911526 128.537288,161.212881 129.073221,160.786779 C129.612203,160.35661 130.339322,160.355593 130.878305,160.787797 C139.369831,167.607458 140.751864,178.982034 139.093221,182.163051 C139.014915,182.312542 139.086102,182.489492 139.170508,182.595255 C141.342712,185.326779 141.815593,187.954576 141.829831,189.677288 C141.833898,190.255932 141.50644,190.761356 140.971526,190.997288 C140.439661,191.231187 139.849831,191.132542 139.429831,190.742034 C137.683729,189.12 134.669492,189.324407 130.711526,191.328813 C128.884068,192.254237 126.557288,192.848136 123.918305,192.849153 L123.918305,192.849153 L123.918305,192.849153 Z M108.198305,183.581695 C108.013221,183.581695 107.902373,183.723051 107.867797,183.774915 C107.822034,183.845085 107.689831,184.089153 107.919661,184.315932 C116.537288,192.807458 125.335932,192.911187 130.252881,190.421695 C135.772881,187.623051 138.668136,188.645085 140.121356,189.997627 C140.296271,190.159322 140.487458,190.099322 140.561695,190.066779 C140.621695,190.040339 140.814915,189.935593 140.812881,189.685424 C140.799661,188.122373 140.36644,185.73356 138.373221,183.228813 C138.013221,182.774237 137.942034,182.171187 138.192203,181.692203 C139.689153,178.821356 138.194237,167.967458 130.241695,161.581017 C129.99661,161.382712 129.768813,161.532203 129.705763,161.582034 C129.645763,161.630847 129.45661,161.810847 129.588813,162.084407 C131.79661,166.655593 132.545085,172.207119 131.406102,175.585424 C131.259661,176.018644 130.930169,176.352203 130.503051,176.501695 C130.081017,176.648136 129.625424,176.591187 129.249153,176.349153 C127.174576,175.003729 122.54644,171.500339 118.484745,168.199322 C118.211187,167.977627 117.985424,168.163729 117.92339,168.225763 C117.860339,168.288813 117.670169,168.514576 117.890847,168.792203 L118.169492,169.142034 C118.631187,169.719661 118.597627,170.49661 118.088136,171.032542 C117.57661,171.567458 116.801695,171.640678 116.201695,171.20644 C115.243729,170.513898 114.253221,169.787797 113.287119,169.068813 C113.007458,168.858305 112.784745,169.051526 112.726779,169.115593 C112.665763,169.179661 112.485763,169.408474 112.708474,169.675932 C116.275932,173.97356 121.168474,179.408136 124.204068,181.77356 C124.597627,182.081695 124.8,182.563729 124.741017,183.065085 C124.681017,183.572542 124.368813,184.003729 123.905085,184.216271 C119.809831,186.090508 113.854576,185.861695 108.365085,183.617288 C108.304068,183.591864 108.248136,183.581695 108.198305,183.581695 L108.198305,183.581695 L108.198305,183.581695 Z" id="Fill-47" fill="#FF952A"></path>
                                    <path d="M121.689153,210.176949 C111.056949,210.176949 100.661695,207.269492 91.6250846,201.769831 C91.4725423,201.677288 91.3810166,201.512542 91.3810166,201.335593 L91.3810166,133.240678 C91.3810166,130.167458 93.8816949,127.667797 96.9538982,127.667797 L145.067797,127.667797 C148.14,127.667797 150.640678,130.167458 150.640678,133.240678 L150.640678,201.913221 C150.640678,202.092203 150.546102,202.257966 150.392542,202.350508 C141.80339,207.469831 131.878983,210.176949 121.689153,210.176949 L121.689153,210.176949 L121.689153,210.176949 Z M92.3969494,201.048813 C101.216949,206.355255 111.339661,209.16 121.689153,209.16 C131.597288,209.16 141.249153,206.554576 149.623729,201.62339 L149.623729,140.238305 L92.9369494,140.238305 C92.6562711,140.238305 92.4294917,140.011526 92.4284743,139.730847 C92.4284743,139.450169 92.6542371,139.222373 92.9349154,139.221356 L149.623729,139.02 L149.623729,133.240678 C149.623729,130.727797 147.579661,128.684745 145.067797,128.684745 L96.9538982,128.684745 C94.4410166,128.684745 92.3969494,130.727797 92.3969494,133.240678 L92.3969494,201.048813 L92.3969494,201.048813 Z" id="Fill-48" fill="#FF8D00"></path>
                                </g>
                            </g>
                        </g>
                    </g>
                </g>
            </g>
        </g>
    </g>
</svg>